<svg width="26" height="25" viewBox="0 0 26 25" fill="none" xmlns="http://www.w3.org/2000/svg">
<path d="M21.3438 1.5625H4.15625C3.53465 1.5625 2.93851 1.80943 2.49897 2.24897C2.05943 2.68851 1.8125 3.28465 1.8125 3.90625L1.8125 21.0938C1.8125 21.7154 2.05943 22.3115 2.49897 22.751C2.93851 23.1906 3.53465 23.4375 4.15625 23.4375H10.8579V16.0005H7.78174V12.5H10.8579V9.83203C10.8579 6.79736 12.6646 5.12109 15.4316 5.12109C16.7568 5.12109 18.1426 5.35742 18.1426 5.35742V8.33594H16.6157C15.1113 8.33594 14.6421 9.26953 14.6421 10.2271V12.5H18.0005L17.4634 16.0005H14.6421V23.4375H21.3438C21.9654 23.4375 22.5615 23.1906 23.001 22.751C23.4406 22.3115 23.6875 21.7154 23.6875 21.0938V3.90625C23.6875 3.28465 23.4406 2.68851 23.001 2.24897C22.5615 1.80943 21.9654 1.5625 21.3438 1.5625Z" fill="white"/>
</svg>
