<svg width="26" height="25" viewBox="0 0 26 25" fill="none" xmlns="http://www.w3.org/2000/svg">
<path d="M12.7549 6.88477C9.64941 6.88477 7.14453 9.38965 7.14453 12.4951C7.14453 15.6006 9.64941 18.1055 12.7549 18.1055C15.8604 18.1055 18.3652 15.6006 18.3652 12.4951C18.3652 9.38965 15.8604 6.88477 12.7549 6.88477ZM12.7549 16.1426C10.748 16.1426 9.10742 14.5068 9.10742 12.4951C9.10742 10.4834 10.7432 8.84766 12.7549 8.84766C14.7666 8.84766 16.4023 10.4834 16.4023 12.4951C16.4023 14.5068 14.7617 16.1426 12.7549 16.1426ZM19.9033 6.65527C19.9033 7.38281 19.3174 7.96387 18.5947 7.96387C17.8672 7.96387 17.2861 7.37793 17.2861 6.65527C17.2861 5.93262 17.8721 5.34668 18.5947 5.34668C19.3174 5.34668 19.9033 5.93262 19.9033 6.65527ZM23.6191 7.9834C23.5361 6.23047 23.1357 4.67773 21.8516 3.39844C20.5723 2.11914 19.0195 1.71875 17.2666 1.63086C15.46 1.52832 10.0449 1.52832 8.23828 1.63086C6.49023 1.71387 4.9375 2.11426 3.65332 3.39355C2.36914 4.67285 1.97363 6.22559 1.88574 7.97852C1.7832 9.78516 1.7832 15.2002 1.88574 17.0068C1.96875 18.7598 2.36914 20.3125 3.65332 21.5918C4.9375 22.8711 6.48535 23.2715 8.23828 23.3594C10.0449 23.4619 15.46 23.4619 17.2666 23.3594C19.0195 23.2764 20.5723 22.876 21.8516 21.5918C23.1309 20.3125 23.5313 18.7598 23.6191 17.0068C23.7217 15.2002 23.7217 9.79004 23.6191 7.9834ZM21.2852 18.9453C20.9043 19.9023 20.167 20.6396 19.2051 21.0254C17.7646 21.5967 14.3467 21.4648 12.7549 21.4648C11.1631 21.4648 7.74023 21.5918 6.30469 21.0254C5.34766 20.6445 4.61035 19.9072 4.22461 18.9453C3.65332 17.5049 3.78516 14.0869 3.78516 12.4951C3.78516 10.9033 3.6582 7.48047 4.22461 6.04492C4.60547 5.08789 5.34277 4.35059 6.30469 3.96484C7.74512 3.39355 11.1631 3.52539 12.7549 3.52539C14.3467 3.52539 17.7695 3.39844 19.2051 3.96484C20.1621 4.3457 20.8994 5.08301 21.2852 6.04492C21.8564 7.48535 21.7246 10.9033 21.7246 12.4951C21.7246 14.0869 21.8564 17.5098 21.2852 18.9453Z" fill="white"/>
</svg>
