<svg width="26" height="25" viewBox="0 0 26 25" fill="none" xmlns="http://www.w3.org/2000/svg">
<path d="M22.125 1.5625H3.37012C2.51074 1.5625 1.8125 2.27051 1.8125 3.13965V21.8604C1.8125 22.7295 2.51074 23.4375 3.37012 23.4375H22.125C22.9844 23.4375 23.6875 22.7295 23.6875 21.8604V3.13965C23.6875 2.27051 22.9844 1.5625 22.125 1.5625ZM8.42383 20.3125H5.18164V9.87305H8.42871V20.3125H8.42383ZM6.80273 8.44727C5.7627 8.44727 4.92285 7.60254 4.92285 6.56738C4.92285 5.53223 5.7627 4.6875 6.80273 4.6875C7.83789 4.6875 8.68262 5.53223 8.68262 6.56738C8.68262 7.60742 7.84277 8.44727 6.80273 8.44727ZM20.5771 20.3125H17.335V15.2344C17.335 14.0234 17.3105 12.4658 15.6504 12.4658C13.9609 12.4658 13.7021 13.7842 13.7021 15.1465V20.3125H10.46V9.87305H13.5703V11.2988H13.6143C14.0488 10.4785 15.1084 9.61426 16.6855 9.61426C19.9668 9.61426 20.5771 11.7773 20.5771 14.5898V20.3125Z" fill="white"/>
</svg>
