<svg width="26" height="25" viewBox="0 0 26 25" fill="none" xmlns="http://www.w3.org/2000/svg">
<g clip-path="url(#clip0_15_1708)">
<path d="M24.1066 6.77439C23.834 5.74792 23.0308 4.9395 22.011 4.66515C20.1624 4.16663 12.7501 4.16663 12.7501 4.16663C12.7501 4.16663 5.33773 4.16663 3.48917 4.66515C2.46933 4.93954 1.66612 5.74792 1.39351 6.77439C0.898193 8.63494 0.898193 12.5168 0.898193 12.5168C0.898193 12.5168 0.898193 16.3987 1.39351 18.2592C1.66612 19.2857 2.46933 20.0604 3.48917 20.3348C5.33773 20.8333 12.7501 20.8333 12.7501 20.8333C12.7501 20.8333 20.1624 20.8333 22.011 20.3348C23.0308 20.0604 23.834 19.2857 24.1066 18.2592C24.6019 16.3987 24.6019 12.5168 24.6019 12.5168C24.6019 12.5168 24.6019 8.63494 24.1066 6.77439ZM10.3258 16.0412V8.99236L16.5211 12.5169L10.3258 16.0412Z" fill="white"/>
</g>
<defs>
<clipPath id="clip0_15_1708">
<rect width="25" height="25" fill="white" transform="translate(0.25)"/>
</clipPath>
</defs>
</svg>
