<?xml version="1.0" standalone="no"?>
<!DOCTYPE svg PUBLIC "-//W3C//DTD SVG 20010904//EN"
 "http://www.w3.org/TR/2001/REC-SVG-20010904/DTD/svg10.dtd">
<svg version="1.0" xmlns="http://www.w3.org/2000/svg"
 width="290.000000pt" height="290.000000pt" viewBox="0 0 290.000000 290.000000"
 preserveAspectRatio="xMidYMid meet">
<metadata>
Created by potrace 1.14, written by Peter Selinger 2001-2017
</metadata>
<g transform="translate(0.000000,290.000000) scale(0.100000,-0.100000)"
fill="#000000" stroke="none">
<path d="M1320 2869 c-246 -31 -434 -98 -620 -222 -69 -45 -186 -141 -235
-192 -198 -205 -331 -481 -372 -768 -10 -65 -10 -307 -1 -367 24 -158 61 -278
133 -425 150 -309 422 -560 730 -673 90 -33 212 -68 265 -76 114 -16 144 -19
230 -19 126 1 207 9 318 34 40 9 44 7 70 -21 15 -17 37 -32 49 -33 14 -1 27
-11 34 -28 23 -56 130 -75 212 -38 39 18 34 41 -25 99 -37 36 -48 54 -40 59
10 6 9 11 -3 21 -22 19 -18 35 13 51 148 76 275 171 389 293 177 189 289 407
344 672 31 150 32 383 0 531 -119 569 -542 980 -1118 1089 -92 17 -289 24
-373 13z m403 -59 c111 -24 194 -50 274 -85 30 -14 60 -22 67 -18 6 3 8 2 4
-2 -10 -11 89 -68 103 -60 5 4 8 2 7 -3 -2 -6 29 -33 67 -60 118 -84 248 -218
333 -343 74 -110 176 -353 196 -469 22 -127 28 -328 13 -445 -53 -422 -310
-791 -698 -1004 -72 -39 -77 -40 -82 -21 -4 16 6 25 56 51 172 87 374 271 482
437 33 51 58 95 57 99 -2 3 0 9 5 12 12 8 59 117 89 203 27 81 27 78 16 78 -4
0 -18 -33 -31 -73 -13 -39 -46 -119 -74 -176 -68 -137 -70 -141 -79 -141 -5 0
-8 -6 -8 -14 0 -8 -4 -16 -8 -18 -4 -2 -21 -21 -37 -43 -54 -72 -147 -165
-224 -223 -42 -31 -78 -60 -81 -64 -8 -10 -173 -93 -191 -96 -11 -1 -21 8 -27
28 -10 28 -9 31 18 45 32 16 51 19 49 8 -6 -35 35 -53 51 -23 5 10 27 28 47
41 158 95 315 254 416 422 68 112 131 266 151 372 4 17 9 41 11 55 35 166 19
412 -36 595 -120 391 -451 713 -854 830 -48 14 -95 25 -105 25 -10 0 -25 6
-32 13 -7 8 -20 17 -28 20 -14 7 19 4 87 -8 38 -6 191 -57 248 -82 22 -9 43
-16 48 -15 4 1 7 -2 7 -8 0 -5 5 -10 11 -10 15 0 121 -64 189 -113 51 -38 215
-197 250 -242 93 -122 206 -357 225 -468 3 -18 10 -48 15 -67 14 -54 24 -155
23 -257 0 -51 4 -93 8 -93 13 0 8 189 -7 286 -20 128 -22 141 -51 224 -70 203
-195 399 -346 539 -54 50 -178 142 -224 166 -21 11 -40 22 -43 25 -11 12 -149
69 -225 94 -123 40 -228 57 -366 61 -156 3 -389 -30 -389 -56 0 -4 15 -3 32 2
33 9 110 23 178 33 44 6 135 8 220 5 l65 -2 -50 -8 c-27 -5 -77 -11 -110 -13
-241 -19 -367 -51 -542 -139 -294 -147 -520 -406 -622 -713 -53 -161 -66 -239
-65 -399 0 -264 67 -486 212 -705 58 -88 233 -272 290 -305 31 -19 44 -45 21
-45 -37 0 -252 212 -324 320 -28 41 -52 77 -55 80 -3 3 -18 34 -35 70 -16 36
-34 68 -40 72 -5 4 -7 8 -3 8 4 0 -2 19 -12 43 -23 52 -66 213 -75 287 -4 30
-9 92 -10 138 -1 45 -5 85 -9 90 -8 7 -2 -200 7 -248 3 -14 8 -43 12 -64 4
-22 11 -50 16 -63 5 -13 11 -38 14 -56 4 -17 11 -37 17 -44 6 -7 8 -13 5 -13
-8 0 16 -58 69 -165 82 -168 244 -356 396 -460 17 -11 36 -35 44 -54 l14 -33
-27 17 c-56 36 -139 102 -204 162 -36 35 -70 59 -74 55 -5 -4 -5 -1 -1 6 10
16 -32 64 -47 55 -6 -3 -7 -1 -3 5 3 6 -16 42 -43 79 -104 144 -191 356 -226
553 -17 98 -14 390 5 454 6 21 9 47 7 58 -3 11 -3 17 0 14 4 -3 23 45 44 109
78 237 220 446 404 596 35 28 62 56 58 62 -3 6 -1 7 4 4 14 -9 145 77 135 88
-4 5 -2 5 4 2 6 -4 29 2 50 12 147 71 249 105 394 130 142 24 348 21 483 -9z
m-287 -97 c-2 -2 -28 -6 -58 -9 -170 -13 -311 -51 -452 -121 -332 -166 -567
-462 -647 -818 -23 -101 -35 -352 -20 -420 5 -22 12 -59 15 -83 9 -66 71 -243
112 -319 89 -164 234 -333 348 -408 14 -10 26 -22 26 -27 0 -20 -67 31 -159
122 -99 98 -183 213 -244 335 -38 76 -91 234 -102 305 -4 25 -10 54 -12 65 -9
36 -11 276 -3 313 5 20 11 55 15 77 10 67 33 149 66 230 171 424 564 717 1019
761 36 3 67 8 68 9 6 5 34 -7 28 -12z m399 -50 c109 -35 204 -80 310 -151 113
-75 169 -125 249 -221 106 -129 165 -231 221 -385 171 -475 20 -1019 -375
-1347 -80 -66 -166 -122 -181 -117 -6 2 22 24 63 50 164 104 308 261 403 441
49 92 98 222 114 307 6 30 14 66 17 80 4 14 7 88 9 165 2 114 -2 161 -21 252
-86 422 -379 759 -784 900 -47 17 -102 33 -122 37 -21 4 -38 11 -38 17 0 11
24 6 135 -28z m-424 13 c-22 -26 -11 -172 15 -213 13 -21 13 -23 -3 -24 -101
-2 -260 -42 -357 -88 -258 -122 -446 -346 -517 -616 -24 -92 -34 -284 -18
-380 27 -171 117 -358 232 -482 l29 -31 -18 -54 c-27 -81 -15 -150 27 -161 19
-5 59 33 59 57 0 6 9 22 19 35 l19 24 78 -46 c228 -132 456 -164 734 -102 24
5 27 0 68 -98 23 -56 42 -110 42 -118 0 -33 -160 -63 -345 -63 -204 -1 -273
10 -440 71 -84 31 -75 25 -81 58 -8 42 -22 63 -54 80 -34 18 -73 19 -101 5
-16 -9 -29 -3 -78 34 -122 94 -260 264 -335 414 -113 225 -150 536 -92 785 63
273 229 526 451 692 116 87 333 185 468 211 17 4 48 10 67 13 19 4 59 8 89 10
48 2 53 0 42 -13z m429 -48 c133 -43 323 -153 421 -244 208 -192 350 -464 384
-734 47 -369 -95 -760 -368 -1016 -121 -113 -330 -242 -347 -213 -12 18 -29
116 -32 186 l-3 62 63 38 c79 48 209 165 246 221 16 25 32 39 39 35 7 -3 9 -2
5 2 -5 5 9 40 31 79 41 76 96 225 105 291 12 78 18 225 10 225 -5 0 -9 -30 -9
-67 1 -105 -17 -187 -41 -191 -51 -10 -68 -60 -37 -113 17 -28 16 -30 -22
-105 -48 -93 -113 -181 -192 -256 -87 -82 -219 -164 -211 -131 1 5 -2 33 -6
63 -8 59 -10 134 -6 218 1 32 -3 59 -11 68 -7 9 -18 24 -24 34 -5 10 -31 52
-56 94 l-47 75 24 22 c47 44 36 138 -19 168 -21 11 -23 18 -22 104 1 70 -3 98
-15 117 -14 21 -16 42 -11 127 4 56 9 104 12 107 3 4 21 1 39 -6 31 -10 35 -9
57 16 29 34 30 84 3 128 -11 18 -20 43 -20 56 0 13 -11 44 -25 70 -14 26 -25
62 -25 80 0 47 -20 124 -38 144 -14 17 -12 17 39 2 248 -71 478 -277 579 -520
37 -88 70 -212 70 -261 0 -18 4 -33 9 -33 12 0 3 72 -21 165 -81 309 -315 559
-616 655 -86 28 -102 40 -84 63 5 7 8 29 7 50 -1 21 1 40 5 42 3 2 7 27 8 55
0 27 3 54 7 59 6 10 39 3 145 -31z m-410 -212 c0 -20 -20 -33 -63 -41 -20 -4
-39 -11 -42 -15 -3 -5 -30 -14 -61 -20 -37 -8 -68 -22 -92 -44 -21 -17 -50
-38 -67 -45 -39 -17 -153 -101 -159 -118 -3 -7 -16 -13 -30 -13 -14 0 -40 -14
-60 -34 -30 -27 -36 -40 -36 -73 0 -48 29 -89 76 -109 l32 -13 4 -93 c3 -58
-1 -107 -8 -129 -10 -31 -10 -40 2 -58 53 -76 173 -51 157 32 -3 18 -9 34 -12
37 -39 31 -57 133 -41 223 6 29 11 66 11 82 2 41 18 105 27 106 29 3 58 11 85
25 36 19 85 26 92 13 3 -4 7 -27 10 -50 2 -23 7 -68 10 -98 4 -31 9 -71 11
-89 2 -19 10 -47 18 -63 8 -16 17 -42 21 -58 3 -15 16 -39 27 -51 l22 -23 -21
-17 c-23 -18 -48 -101 -57 -190 -13 -128 -16 -229 -5 -235 13 -9 71 -9 98 0
20 6 21 3 21 -72 0 -43 -5 -94 -10 -115 l-10 -36 -58 5 c-52 5 -69 1 -148 -32
-114 -48 -212 -76 -219 -64 -4 5 -31 21 -62 35 -61 29 -61 29 -89 -33 -8 -18
-14 -42 -14 -54 0 -22 0 -22 -21 -3 -33 29 -103 132 -136 199 -71 143 -103
289 -97 445 2 52 5 104 8 115 2 11 5 28 5 38 1 9 9 17 19 17 56 0 84 76 42
113 -20 17 -20 17 16 90 101 199 249 345 446 436 106 50 203 75 346 90 6 0 12
-5 12 -13z m-438 -335 c26 -23 32 -36 32 -71 0 -100 -134 -137 -180 -49 -27
53 -11 108 40 133 45 23 72 20 108 -13z m769 -685 c23 -37 24 -58 5 -95 -23
-44 -91 -65 -137 -41 -23 13 -49 61 -49 93 0 34 35 75 73 85 44 12 85 -4 108
-42z m-120 -363 c55 -61 59 -75 58 -200 -1 -82 3 -133 14 -166 l15 -48 -26
-10 c-48 -18 -197 -36 -273 -32 -156 8 -329 57 -434 124 l-48 31 31 29 c18 17
32 34 32 39 0 6 17 17 38 26 34 15 69 18 275 23 30 1 37 5 37 21 0 85 100 130
165 74 25 -21 30 -33 30 -70 0 -60 -37 -98 -96 -98 -34 0 -46 5 -70 32 -36 40
-47 42 -19 2 31 -43 86 -58 134 -35 54 26 74 71 58 130 -7 28 -9 52 -3 63 5 9
16 34 25 55 8 20 19 37 24 37 5 0 20 -12 33 -27z m-574 -674 c44 -15 110 -33
145 -39 34 -7 80 -16 100 -20 68 -14 287 -4 388 18 52 11 102 23 111 27 20 8
31 -17 23 -50 -7 -29 -15 -32 -144 -55 -135 -24 -403 -21 -477 5 -7 2 -13 0
-13 -5 0 -17 118 -33 255 -34 120 0 196 8 310 34 53 13 55 12 55 -5 0 -21 -24
-30 -130 -50 -106 -19 -347 -23 -417 -7 -29 7 -45 6 -54 -2 -9 -8 -10 -8 -5 2
5 8 -1 12 -18 12 -15 0 -30 8 -36 19 -15 28 -13 33 10 26 11 -4 20 -2 20 4 0
6 -8 12 -17 13 -10 0 -23 2 -29 2 -6 1 -18 6 -25 12 -8 6 -32 14 -54 17 -56 7
-160 56 -147 69 7 7 36 0 87 -21 43 -17 86 -31 97 -31 40 0 10 23 -70 53 -45
17 -82 35 -82 40 0 5 8 6 18 2 9 -4 54 -20 99 -36z m-99 -59 c28 -13 52 -28
52 -32 0 -17 -29 -19 -67 -6 -41 15 -123 56 -123 62 0 12 93 -4 138 -24z"/>
<path d="M1076 2743 c-4 -5 -11 -8 -14 -8 -39 -3 -322 -140 -322 -157 0 -4 -5
-8 -11 -8 -5 0 -42 -26 -82 -57 -94 -75 -173 -156 -227 -233 -13 -19 -27 -37
-30 -40 -46 -40 -212 -409 -179 -398 6 2 21 35 34 73 12 39 36 98 53 133 16
34 28 62 26 62 -3 0 0 6 6 13 6 6 32 44 58 83 73 110 178 227 252 283 19 14
37 29 40 32 19 23 263 160 310 174 3 1 26 8 53 15 26 8 47 20 47 27 0 15 -3
16 -14 6z"/>
<path d="M196 1806 c-3 -13 -9 -31 -12 -40 -3 -9 -2 -16 4 -16 5 0 13 11 16
24 3 13 9 31 12 40 3 9 2 16 -4 16 -5 0 -13 -11 -16 -24z"/>
<path d="M179 1728 c-1 -7 -3 -22 -5 -33 -10 -72 -12 -125 -4 -125 6 0 10 20
10 45 0 25 0 46 0 48 1 1 5 19 9 40 5 21 5 37 0 37 -5 0 -10 -6 -10 -12z"/>
<path d="M2740 1370 c0 -26 0 -24 -10 -60 -6 -22 -6 -30 2 -28 6 2 13 15 14
29 2 13 6 36 9 52 2 15 0 27 -5 27 -6 0 -10 -9 -10 -20z"/>
<path d="M2718 1245 c-3 -14 -1 -25 3 -25 5 0 9 4 9 9 0 5 3 16 6 25 3 9 2 16
-4 16 -5 0 -12 -11 -14 -25z"/>
<path d="M2705 1200 c-3 -5 -2 -10 4 -10 5 0 13 5 16 10 3 6 2 10 -4 10 -5 0
-13 -4 -16 -10z"/>
<path d="M2178 869 c-15 -16 -15 -18 0 -24 9 -3 13 -3 9 1 -4 4 -2 13 5 21 17
20 5 22 -14 2z"/>
</g>
</svg>
